<?xml version="1.0" encoding="UTF-8"?>
<svg xmlns="http://www.w3.org/2000/svg" width="1080" height="1080" viewBox="0 0 1080 1080">
  <defs>
    <linearGradient id="bg" x1="0" x2="1" y1="0" y2="1">
      <stop offset="0" stop-color="#fff9f5"/>
      <stop offset="0.58" stop-color="#f4e3dc"/>
      <stop offset="1" stop-color="#e8d5c4"/>
    </linearGradient>
    <pattern id="grid" width="72" height="72" patternUnits="userSpaceOnUse">
      <path d="M72 0 H0 V72" fill="none" stroke="#5d2e46" stroke-width="1" stroke-opacity="0.055"/>
    </pattern>
  </defs>
  <rect width="1080" height="1080" fill="url(#bg)"/>
  <rect width="1080" height="1080" fill="url(#grid)"/>
  <circle cx="920" cy="130" r="210" fill="#d4a5a5" fill-opacity="0.24"/>
  <circle cx="130" cy="930" r="260" fill="#b87d6d" fill-opacity="0.13"/>
  <g transform="translate(540 610)">
    <circle cx="0" cy="0" r="190" fill="none" stroke="#5d2e46" stroke-opacity="0.12" stroke-width="28"/>
    <path d="M0 -190 A190 190 0 1 1 -188 28" fill="none" stroke="#b87d6d" stroke-width="28" stroke-linecap="round"/>
    <path d="M-35 -210 L35 -210" stroke="#9f6f2f" stroke-width="10" stroke-linecap="round"/>
    <text x="0" y="20" text-anchor="middle" font-family="FreeSans, Arial" font-size="74" font-weight="700" fill="#5d2e46">19.4</text>
    <text x="0" y="78" text-anchor="middle" font-family="FreeSans, Arial" font-size="30" font-weight="700" fill="#241b20">of 25</text>
  </g>
  <g transform="translate(145 140)">
    <text x="0" y="0" font-family="FreeSans, Arial" font-size="28" font-weight="700" letter-spacing="4" fill="#6f5d61">SNOWFLAKE INNOVATION</text>
    <text x="0" y="84" font-family="FreeSans, Arial" font-size="72" font-weight="700" fill="#5d2e46">Verdict: Strong</text><text x="0" y="162" font-family="FreeSans, Arial" font-size="72" font-weight="700" fill="#5d2e46">Momentum</text>
    <g transform="translate(0 264)">
      <rect x="0" y="-34" width="650" height="138" rx="8" fill="#fff9f5" fill-opacity="0.9"/>
      <text x="28" y="22" font-family="FreeSans, Arial" font-size="31" font-weight="700" fill="#241b20">19.4 / 25. Strong innovator, just</text><text x="28" y="60" font-family="FreeSans, Arial" font-size="31" font-weight="700" fill="#241b20">below exceptional.</text>
    </g>
  </g>
  <g transform="translate(145 950)">
    <rect x="0" y="0" width="160" height="8" rx="4" fill="#b87d6d"/>
    <text x="186" y="12" font-family="FreeSans, Arial" font-size="26" font-weight="700" fill="#5d2e46">Slide 7 / 7</text>
  </g>
</svg>